<?xml version="1.0" encoding="UTF-8" standalone="no"?>
<!DOCTYPE svg PUBLIC "-//W3C//DTD SVG 1.1//EN"
 "http://www.w3.org/Graphics/SVG/1.1/DTD/svg11.dtd">
<!-- Generated by graphviz version 2.47.1 (20210417.1919)
 -->
<!-- Title: demoConnection Pages: 1 -->
<svg width="229pt" height="45pt"
 viewBox="0.00 0.00 229.00 45.00" xmlns="http://www.w3.org/2000/svg" xmlns:xlink="http://www.w3.org/1999/xlink">

<svg id="main" version="1.1" xmlns="http://www.w3.org/2000/svg" xmlns:xlink="http://www.w3.org/1999/xlink" xml:space="preserve">

<style type="text/css"><![CDATA[
.node, .edge {opacity: 0.7;}
.node.selected, .edge.selected {opacity: 1;}
.edge:hover path { stroke: red; }
.edge:hover polygon { stroke: red; fill: red; }
]]></style>
<script type="application/ecmascript" xlink:href="svg.min.js"/>
<svg id="graph" class="graph">
<g id="graph0" class="graph" transform="scale(1 1) rotate(0) translate(4 41)">
<title>demoConnection</title>
<!-- Node1 -->
<g id="Node000001" class="node">
<title>Node1</title>
<g id="a_Node000001"><a xlink:title="This opens the administrative MySQL connection used to create, inspect, and drop the demo database.">
<polygon fill="#999999" stroke="#666666" points="90,-19 0,-19 0,0 90,0 90,-19"/>
<text text-anchor="middle" x="45" y="-7" font-family="Helvetica,sans-Serif" font-size="10.00">demoConnection</text>
</a>
</g>
</g>
<!-- Node1&#45;&gt;Node1 -->
<g id="edge1_Node000001_Node000001" class="edge">
<title>Node1&#45;&gt;Node1</title>
<g id="a_edge1_Node000001_Node000001"><a xlink:title=" ">
<path fill="none" stroke="#63b8ff" d="M25.27,-19.08C15.67,-27.73 22.25,-37 45,-37 59.22,-37 67.12,-33.38 68.7,-28.55"/>
<polygon fill="#63b8ff" stroke="#63b8ff" points="71.83,-26.95 64.73,-19.08 65.37,-29.66 71.83,-26.95"/>
</a>
</g>
</g>
<!-- Node2 -->
<g id="Node000002" class="node">
<title>Node2</title>
<g id="a_Node000002"><a xlink:href="demo_2demo_8php.html#ae500e25b814b78dd63bf379011d131bc" target="_top" xlink:title="This reads a demo setting from the environment.">
<polygon fill="white" stroke="#666666" points="221,-19 126,-19 126,0 221,0 221,-19"/>
<text text-anchor="middle" x="173.5" y="-7" font-family="Helvetica,sans-Serif" font-size="10.00">demoEnvironment</text>
</a>
</g>
</g>
<!-- Node1&#45;&gt;Node2 -->
<g id="edge2_Node000001_Node000002" class="edge">
<title>Node1&#45;&gt;Node2</title>
<g id="a_edge2_Node000001_Node000002"><a xlink:title=" ">
<path fill="none" stroke="#63b8ff" d="M90.24,-9.5C98.45,-9.5 107.13,-9.5 115.65,-9.5"/>
<polygon fill="#63b8ff" stroke="#63b8ff" points="115.92,-13 125.92,-9.5 115.92,-6 115.92,-13"/>
</a>
</g>
</g>
<!-- Node2&#45;&gt;Node2 -->
<g id="edge3_Node000002_Node000002" class="edge">
<title>Node2&#45;&gt;Node2</title>
<g id="a_edge3_Node000002_Node000002"><a xlink:title=" ">
<path fill="none" stroke="#63b8ff" d="M153.77,-19.08C144.17,-27.73 150.75,-37 173.5,-37 187.72,-37 195.62,-33.38 197.2,-28.55"/>
<polygon fill="#63b8ff" stroke="#63b8ff" points="200.33,-26.95 193.23,-19.08 193.87,-29.66 200.33,-26.95"/>
</a>
</g>
</g>
</g>
</svg>
</svg>

<style type='text/css'>
<![CDATA[
[data-mouse-over-selected='false'] { opacity: 0.7; }
[data-mouse-over-selected='true']  { opacity: 1.0; }
]]>
</style>
</svg>
