<?xml version="1.0" encoding="UTF-8" standalone="no"?>
<!DOCTYPE svg PUBLIC "-//W3C//DTD SVG 1.1//EN"
 "http://www.w3.org/Graphics/SVG/1.1/DTD/svg11.dtd">
<!-- Generated by graphviz version 2.47.1 (20210417.1919)
 -->
<!-- Title: demoConnection Pages: 1 -->
<svg width="332pt" height="64pt"
 viewBox="0.00 0.00 332.00 64.00" xmlns="http://www.w3.org/2000/svg" xmlns:xlink="http://www.w3.org/1999/xlink">

<svg id="main" version="1.1" xmlns="http://www.w3.org/2000/svg" xmlns:xlink="http://www.w3.org/1999/xlink" xml:space="preserve">

<style type="text/css"><![CDATA[
.node, .edge {opacity: 0.7;}
.node.selected, .edge.selected {opacity: 1;}
.edge:hover path { stroke: red; }
.edge:hover polygon { stroke: red; fill: red; }
]]></style>
<script type="application/ecmascript" xlink:href="svg.min.js"/>
<svg id="graph" class="graph">
<g id="graph0" class="graph" transform="scale(1 1) rotate(0) translate(4 60)">
<title>demoConnection</title>
<!-- Node1 -->
<g id="Node000001" class="node">
<title>Node1</title>
<g id="a_Node000001"><a xlink:title="This opens an administrative or test&#45;database connection for the selected backend....">
<polygon fill="#999999" stroke="#666666" points="90,-19 0,-19 0,0 90,0 90,-19"/>
<text text-anchor="middle" x="45" y="-7" font-family="Helvetica,sans-Serif" font-size="10.00">demoConnection</text>
</a>
</g>
</g>
<!-- Node1&#45;&gt;Node1 -->
<g id="edge1_Node000001_Node000001" class="edge">
<title>Node1&#45;&gt;Node1</title>
<g id="a_edge1_Node000001_Node000001"><a xlink:title=" ">
<path fill="none" stroke="#63b8ff" d="M27.43,-19.08C18.88,-27.73 24.74,-37 45,-37 57.66,-37 64.7,-33.38 66.11,-28.55"/>
<polygon fill="#63b8ff" stroke="#63b8ff" points="69.35,-27.22 62.57,-19.08 62.79,-29.68 69.35,-27.22"/>
</a>
</g>
</g>
<!-- Node2 -->
<g id="Node000002" class="node">
<title>Node2</title>
<g id="a_Node000002"><a xlink:href="demo_2demo_8php.html#a44ae472ed99b38a2954546153b76679e" target="_top" xlink:title="This validates the selected database driver.">
<polygon fill="white" stroke="#666666" points="193,-38 126,-38 126,-19 193,-19 193,-38"/>
<text text-anchor="middle" x="159.5" y="-26" font-family="Helvetica,sans-Serif" font-size="10.00">demoDriver</text>
</a>
</g>
</g>
<!-- Node1&#45;&gt;Node2 -->
<g id="edge2_Node000001_Node000002" class="edge">
<title>Node1&#45;&gt;Node2</title>
<g id="a_edge2_Node000001_Node000002"><a xlink:title=" ">
<path fill="none" stroke="#63b8ff" d="M90.14,-16.95C98.63,-18.39 107.51,-19.89 115.95,-21.31"/>
<polygon fill="#63b8ff" stroke="#63b8ff" points="115.52,-24.79 125.97,-23.01 116.69,-17.89 115.52,-24.79"/>
</a>
</g>
</g>
<!-- Node3 -->
<g id="Node000003" class="node">
<title>Node3</title>
<g id="a_Node000003"><a xlink:href="demo_2demo_8php.html#ae500e25b814b78dd63bf379011d131bc" target="_top" xlink:title="This reads a demo setting from the environment.">
<polygon fill="white" stroke="#666666" points="324,-19 229,-19 229,0 324,0 324,-19"/>
<text text-anchor="middle" x="276.5" y="-7" font-family="Helvetica,sans-Serif" font-size="10.00">demoEnvironment</text>
</a>
</g>
</g>
<!-- Node1&#45;&gt;Node3 -->
<g id="edge6_Node000001_Node000003" class="edge">
<title>Node1&#45;&gt;Node3</title>
<g id="a_edge6_Node000001_Node000003"><a xlink:title=" ">
<path fill="none" stroke="#63b8ff" d="M90.25,-9.5C126.8,-9.5 178.92,-9.5 218.57,-9.5"/>
<polygon fill="#63b8ff" stroke="#63b8ff" points="218.62,-13 228.62,-9.5 218.62,-6 218.62,-13"/>
</a>
</g>
</g>
<!-- Node2&#45;&gt;Node2 -->
<g id="edge3_Node000002_Node000002" class="edge">
<title>Node2&#45;&gt;Node2</title>
<g id="a_edge3_Node000002_Node000002"><a xlink:title=" ">
<path fill="none" stroke="#63b8ff" d="M141.93,-38.08C133.38,-46.73 139.24,-56 159.5,-56 172.16,-56 179.2,-52.38 180.61,-47.55"/>
<polygon fill="#63b8ff" stroke="#63b8ff" points="183.85,-46.22 177.07,-38.08 177.29,-48.68 183.85,-46.22"/>
</a>
</g>
</g>
<!-- Node2&#45;&gt;Node3 -->
<g id="edge4_Node000002_Node000003" class="edge">
<title>Node2&#45;&gt;Node3</title>
<g id="a_edge4_Node000002_Node000003"><a xlink:title=" ">
<path fill="none" stroke="#63b8ff" d="M193.15,-23.11C201.07,-21.8 209.77,-20.36 218.46,-18.92"/>
<polygon fill="#63b8ff" stroke="#63b8ff" points="219.31,-22.33 228.61,-17.25 218.17,-15.42 219.31,-22.33"/>
</a>
</g>
</g>
<!-- Node3&#45;&gt;Node3 -->
<g id="edge5_Node000003_Node000003" class="edge">
<title>Node3&#45;&gt;Node3</title>
<g id="a_edge5_Node000003_Node000003"><a xlink:title=" ">
<path fill="none" stroke="#63b8ff" d="M258.62,-19.08C249.92,-27.73 255.88,-37 276.5,-37 289.39,-37 296.55,-33.38 297.98,-28.55"/>
<polygon fill="#63b8ff" stroke="#63b8ff" points="301.2,-27.19 294.38,-19.08 294.66,-29.67 301.2,-27.19"/>
</a>
</g>
</g>
</g>
</svg>
</svg>

<style type='text/css'>
<![CDATA[
[data-mouse-over-selected='false'] { opacity: 0.7; }
[data-mouse-over-selected='true']  { opacity: 1.0; }
]]>
</style>
</svg>
